<svg xmlns="http://www.w3.org/2000/svg" width="145" height="61" viewBox="0 0 145 61" fill="none">
  <g clip-path="url(#clip0_1_184)">
    <path
      d="M39.6266 59.5037C39.4832 59.5037 39.2878 59.5162 39.0592 59.5308C38.7723 59.5474 38.446 59.5682 38.1487 59.5682H36.9826C38.6725 56.8514 39.7701 54.9079 39.7701 53.0704C39.7701 51.4345 38.3587 50.3786 36.1741 50.3786C34.8876 50.3515 33.6355 50.795 32.6529 51.6258C32.5961 51.6588 32.5546 51.7129 32.5375 51.7764C32.5204 51.8398 32.529 51.9075 32.5614 51.9646L32.5947 52.0082L32.6217 52.0332C32.6719 52.0732 32.7355 52.0927 32.7995 52.0877C32.8636 52.0827 32.9234 52.0535 32.9667 52.0062C33.7379 51.2059 34.8084 50.7964 36.1533 50.7902C36.0764 52.7087 34.4571 55.6396 32.0563 59.4351C32.014 59.4923 31.9885 59.5601 31.9826 59.631C31.9768 59.7019 31.9908 59.773 32.0231 59.8363C32.0491 59.8823 32.0869 59.9206 32.1325 59.9472C32.1782 59.9739 32.23 59.988 32.2829 59.9881H32.4907H39.6246C39.6541 59.9916 39.684 59.9888 39.7123 59.9799C39.7406 59.9709 39.7667 59.956 39.7888 59.9361C39.8236 59.9079 39.8484 59.8693 39.8594 59.8259V59.7199C39.8592 59.6902 39.8529 59.6608 39.8409 59.6335C39.8289 59.6063 39.8115 59.5818 39.7897 59.5616C39.7679 59.5413 39.7422 59.5258 39.7141 59.5158C39.6861 59.5059 39.6563 59.5018 39.6266 59.5037Z"
      fill="#EFEFEF" />
    <path
      d="M45.3449 50.3806C44.045 50.3806 42.7983 50.897 41.8791 51.8162C40.9599 52.7354 40.4435 53.9821 40.4435 55.282C40.4435 56.5819 40.9599 57.8286 41.8791 58.7478C42.7983 59.667 44.045 60.1834 45.3449 60.1834H45.5944V60.173C46.8709 60.1085 48.0717 59.5477 48.9406 58.6103C49.8094 57.6728 50.2775 56.4329 50.245 55.1552C50.2124 53.8774 49.6818 52.6629 48.7664 51.7709C47.8509 50.8789 46.6231 50.38 45.3449 50.3806ZM45.48 59.7739H45.3532C44.1795 59.7486 43.0623 59.2646 42.2411 58.4256C41.4199 57.5865 40.96 56.4592 40.96 55.2851C40.96 54.1111 41.4199 52.9837 42.2411 52.1447C43.0623 51.3056 44.1795 50.8216 45.3532 50.7963H45.3969H45.4842L45.48 59.7739Z"
      fill="#EFEFEF" />
    <path
      d="M90.1475 50.3806C88.847 50.3806 87.5998 50.8972 86.6802 51.8168C85.7606 52.7364 85.244 53.9836 85.244 55.2841C85.244 56.5846 85.7606 57.8318 86.6802 58.7514C87.5998 59.6709 88.847 60.1875 90.1475 60.1875H90.3013V60.1772C91.5888 60.1398 92.8098 59.5968 93.7 58.6659C94.5902 57.735 95.078 56.4909 95.0578 55.203C95.0375 53.9151 94.5109 52.687 93.592 51.7844C92.673 50.8819 91.4355 50.3776 90.1475 50.3806ZM90.2867 59.7677H90.1433C89.5522 59.7827 88.964 59.6809 88.4124 59.468C87.8608 59.2551 87.3567 58.9353 86.929 58.5271C86.5013 58.1188 86.1585 57.6301 85.9201 57.089C85.6818 56.5479 85.5527 55.965 85.5403 55.3739C85.5278 54.7828 85.6322 54.195 85.8476 53.6443C86.0629 53.0936 86.3848 52.5909 86.7949 52.165C87.2051 51.7391 87.6953 51.3984 88.2374 51.1625C88.7796 50.9265 89.363 50.8 89.9542 50.7901H90.162C90.2056 50.787 90.2494 50.787 90.293 50.7901L90.2867 59.7677Z"
      fill="#EFEFEF" />
    <path
      d="M75.9775 55.8685H75.8487C75.7052 55.8789 75.4101 55.9018 74.5869 55.9018H73.1589C72.3587 55.9018 72.0656 55.8789 71.9263 55.8685H71.8162C71.7844 55.8668 71.7527 55.8715 71.7228 55.8822C71.6928 55.893 71.6654 55.9096 71.642 55.9311C71.6185 55.9525 71.5996 55.9785 71.5864 56.0074C71.5731 56.0362 71.5657 56.0675 71.5646 56.0992V56.1346C71.5693 56.1943 71.5963 56.2501 71.6402 56.2909C71.6841 56.3317 71.7417 56.3546 71.8016 56.3549H71.9263C72.0656 56.3549 72.3587 56.3237 73.1589 56.3237H74.5869C75.4184 56.3237 75.7073 56.3445 75.8487 56.3549C75.8833 56.3572 75.918 56.3572 75.9526 56.3549H75.9713C76.0277 56.3552 76.0822 56.3353 76.1251 56.2988C76.1499 56.2767 76.17 56.2498 76.1843 56.2199C76.1986 56.1899 76.2067 56.1573 76.2083 56.1242V56.0847C76.2032 56.0266 76.1768 55.9724 76.1342 55.9325C76.0917 55.8926 76.0359 55.8698 75.9775 55.8685Z"
      fill="#EFEFEF" />
    <path
      d="M84.4333 59.4995C84.2899 59.4995 84.0945 59.512 83.868 59.5266C83.579 59.5432 83.2444 59.564 82.9534 59.564H81.7893C83.4855 56.8347 84.5872 54.885 84.5872 53.0662C84.5872 51.4303 83.1758 50.3744 80.9891 50.3744C79.6985 50.3452 78.4418 50.7888 77.4554 51.6216C77.402 51.6551 77.3635 51.708 77.348 51.7691C77.3326 51.8303 77.3412 51.8951 77.3723 51.95C77.3817 51.9675 77.3936 51.9836 77.4076 51.9978L77.4326 52.0227C77.4831 52.0629 77.547 52.0825 77.6114 52.0775C77.6758 52.0724 77.7359 52.0432 77.7797 51.9957C78.5509 51.1955 79.6193 50.786 80.9579 50.7797C80.8789 52.6941 79.2617 55.625 76.863 59.4226C76.8166 59.4805 76.7881 59.5507 76.7811 59.6246C76.7741 59.6984 76.7888 59.7727 76.8235 59.8383C76.849 59.885 76.8865 59.9239 76.9323 59.951C76.978 59.9781 77.0302 59.9923 77.0834 59.9922H77.2372V59.9797H84.4188C84.4781 59.9832 84.5365 59.9634 84.5815 59.9246C84.6265 59.8858 84.6546 59.831 84.6599 59.7718V59.7219C84.6599 59.6924 84.654 59.6631 84.6426 59.6359C84.6312 59.6086 84.6144 59.5839 84.5933 59.5632C84.5722 59.5425 84.5472 59.5262 84.5197 59.5153C84.4923 59.5043 84.4629 59.499 84.4333 59.4995Z"
      fill="#EFEFEF" />
    <path
      d="M58.0702 59.5077C57.9268 59.5077 57.7293 59.5202 57.5007 59.5347C57.2138 59.5514 56.8875 59.5721 56.5903 59.5721H55.4262C57.1245 56.845 58.2261 54.8932 58.2261 53.0827C58.2261 51.4468 56.8147 50.3805 54.628 50.3805C53.3375 50.3513 52.0807 50.7949 51.0944 51.6277C51.0382 51.6624 50.9981 51.7181 50.9829 51.7824C50.9677 51.8467 50.9787 51.9144 51.0133 51.9706C51.0216 51.9848 51.0314 51.998 51.0424 52.0101L51.0674 52.033C51.1179 52.0732 51.1818 52.0927 51.2462 52.0877C51.3106 52.0827 51.3707 52.0535 51.4145 52.006C52.1836 51.2057 53.2561 50.7962 54.601 50.79C54.5241 52.7086 52.9069 55.6394 50.5082 59.4308C50.4628 59.4861 50.434 59.5532 50.4252 59.6242C50.4164 59.6952 50.4279 59.7672 50.4583 59.832C50.4835 59.8778 50.5205 59.916 50.5655 59.9427C50.6105 59.9693 50.6617 59.9835 50.714 59.9837H50.8678H58.0515C58.0817 59.9857 58.1119 59.9815 58.1405 59.9715C58.169 59.9615 58.1952 59.9459 58.2175 59.9255C58.2398 59.9051 58.2578 59.8804 58.2704 59.8529C58.2829 59.8254 58.2898 59.7957 58.2906 59.7655V59.7156C58.2906 59.6872 58.2849 59.6591 58.2736 59.633C58.2624 59.607 58.246 59.5835 58.2253 59.564C58.2047 59.5445 58.1803 59.5295 58.1536 59.5198C58.1269 59.5101 58.0986 59.506 58.0702 59.5077Z"
      fill="#EFEFEF" />
    <path
      d="M102.875 59.5037C102.731 59.5037 102.536 59.5162 102.307 59.5307C102.021 59.5474 101.684 59.5682 101.395 59.5682H100.231C101.921 56.8493 103.018 54.9037 103.018 53.0704C103.018 51.4345 101.605 50.3786 99.4202 50.3786C98.1344 50.3518 96.883 50.7953 95.9011 51.6258C95.8443 51.6588 95.8028 51.7129 95.7857 51.7764C95.7685 51.8398 95.7771 51.9074 95.8096 51.9646C95.8201 51.9801 95.8319 51.9947 95.8449 52.0082L95.8699 52.0332C95.9199 52.0737 95.9836 52.0935 96.0478 52.0884C96.112 52.0834 96.1718 52.054 96.2149 52.0061C96.9861 51.2059 98.0545 50.7964 99.3931 50.7902C99.3142 52.7046 97.697 55.6354 95.2962 59.4393C95.2553 59.4968 95.2311 59.5646 95.2263 59.635C95.2216 59.7054 95.2364 59.7758 95.2692 59.8384C95.296 59.8835 95.3339 59.921 95.3795 59.9473C95.425 59.9735 95.4765 59.9875 95.529 59.988H95.6828H102.864C102.925 59.9909 102.985 59.9695 103.03 59.9286C103.075 59.8877 103.102 59.8306 103.106 59.7698V59.7199C103.105 59.6905 103.098 59.6616 103.086 59.6347C103.074 59.6079 103.057 59.5838 103.035 59.5637C103.014 59.5436 102.989 59.5279 102.961 59.5176C102.934 59.5073 102.904 59.5026 102.875 59.5037Z"
      fill="#EFEFEF" />
    <path
      d="M65.3454 54.9536C65.6073 54.7159 65.8182 54.4275 65.9653 54.106C66.1125 53.7844 66.193 53.4363 66.2018 53.0828C66.2018 51.4199 64.7218 50.3806 62.3377 50.3806C60.9845 50.3806 59.8807 50.7236 58.962 51.4199C58.9091 51.4513 58.8701 51.5017 58.8531 51.5608C58.8361 51.6199 58.8423 51.6833 58.8705 51.738C58.882 51.7607 58.8967 51.7817 58.9142 51.8003L58.9329 51.819C58.9819 51.8607 59.0453 51.8814 59.1095 51.8767C59.1736 51.872 59.2334 51.8424 59.2759 51.7941C59.7914 51.2204 60.8847 50.8296 62.03 50.8067V54.7561H61.9469C60.8161 54.7561 60.5189 54.7374 60.4212 54.7312C60.4039 54.7326 60.3865 54.7326 60.3692 54.7312C60.3386 54.7306 60.3081 54.7362 60.2796 54.7475C60.2512 54.7589 60.2252 54.7758 60.2034 54.7973C60.1815 54.8187 60.1641 54.8444 60.1523 54.8726C60.1404 54.9009 60.1343 54.9312 60.1343 54.9619V54.9868C60.1386 55.0445 60.165 55.0984 60.208 55.1371C60.2509 55.1758 60.3072 55.1965 60.3651 55.1947H60.4212C60.5189 55.1947 60.8182 55.1718 61.9469 55.1718H62.0342V59.7614C60.6207 59.7323 59.2634 59.1378 58.7084 58.2814C58.6894 58.2548 58.6653 58.2321 58.6375 58.2149C58.6096 58.1977 58.5786 58.1863 58.5462 58.1812C58.5139 58.1762 58.4809 58.1777 58.4491 58.1856C58.4173 58.1935 58.3875 58.2077 58.3613 58.2274C58.3466 58.2366 58.3334 58.2478 58.3218 58.2607L58.2948 58.296C58.2691 58.3427 58.2588 58.3963 58.2651 58.4492C58.2715 58.5022 58.2942 58.5518 58.3301 58.5912C59.3008 59.6471 60.6581 60.1834 62.3668 60.1834C64.8944 60.1834 66.524 58.9466 66.524 57.0322C66.5198 55.9929 65.7965 55.2945 65.3454 54.9536Z"
      fill="#EFEFEF" />
    <path
      d="M112.31 57.8635C111.925 57.8947 111.534 57.9072 111.148 57.903V50.9064C111.155 50.8285 111.131 50.751 111.081 50.6907C111.031 50.6304 110.959 50.5921 110.882 50.5842H109.011C108.941 50.5853 108.873 50.6052 108.814 50.6418C108.755 50.6784 108.706 50.7303 108.674 50.7921C107.065 53.3475 105.097 55.6588 102.831 57.6557C102.784 57.6906 102.748 57.739 102.728 57.7945C102.708 57.85 102.705 57.9102 102.719 57.9675L102.756 58.1109C102.774 58.1742 102.812 58.2295 102.866 58.2674C102.919 58.3053 102.984 58.3235 103.049 58.3188H106.845V59.6678C106.84 59.743 106.864 59.8172 106.912 59.8756C106.964 59.9371 107.039 59.9752 107.119 59.9817H110.844C110.92 59.9859 110.995 59.9606 111.052 59.911C111.082 59.8849 111.107 59.8531 111.124 59.8174C111.142 59.7817 111.152 59.7428 111.154 59.7031C111.155 59.6914 111.155 59.6795 111.154 59.6678V58.3021C111.541 58.3021 111.933 58.3021 112.32 58.3416C112.383 58.3434 112.445 58.3206 112.492 58.2779C112.539 58.2353 112.567 58.1762 112.572 58.113V58.0714C112.569 58.0404 112.559 58.0103 112.544 57.9829C112.529 57.9555 112.509 57.9314 112.485 57.912C112.46 57.8926 112.432 57.8784 112.402 57.87C112.372 57.8617 112.341 57.8595 112.31 57.8635ZM106.841 57.8968H103.18C104.507 56.7261 105.733 55.446 106.845 54.0701L106.841 57.8968Z"
      fill="#EFEFEF" />
    <path
      d="M106.357 15.834H106.367C108.038 15.8354 109.642 15.1727 110.825 13.9917C112.008 12.8108 112.673 11.2083 112.675 9.53681C112.676 7.86532 112.013 6.26174 110.832 5.07884C109.651 3.89595 108.049 3.23063 106.377 3.22925H106.367C104.698 3.23034 103.097 3.89327 101.915 5.07271C100.734 6.25215 100.068 7.85187 100.065 9.52122V9.54201C100.079 11.2062 100.747 12.7981 101.924 13.9749C103.1 15.1517 104.692 15.8193 106.357 15.834ZM106.128 3.66368C106.204 3.65843 106.28 3.65843 106.357 3.66368C107.916 3.66368 109.412 4.28322 110.515 5.38601C111.617 6.4888 112.237 7.98451 112.237 9.54409C112.237 11.1037 111.617 12.5994 110.515 13.7022C109.412 14.805 107.916 15.4245 106.357 15.4245C106.282 15.4252 106.207 15.4217 106.132 15.4141L106.128 3.66368Z"
      fill="#EFEFEF" />
    <path
      d="M62.6224 15.2498C62.6187 15.2919 62.6235 15.3342 62.6364 15.3743C62.6493 15.4145 62.6702 15.4516 62.6977 15.4836C62.7252 15.5155 62.7588 15.5417 62.7966 15.5604C62.8344 15.5792 62.8755 15.5902 62.9176 15.5928H67.767C67.8102 15.595 67.8534 15.5887 67.8941 15.574C67.9349 15.5594 67.9723 15.5369 68.0042 15.5077C68.0361 15.4784 68.0619 15.4432 68.08 15.4039C68.0982 15.3647 68.1084 15.3222 68.11 15.2789V3.84654C68.1173 3.79966 68.1135 3.75171 68.0989 3.70655C68.0843 3.66139 68.0594 3.62028 68.026 3.58652C67.9926 3.55276 67.9518 3.5273 67.9069 3.51217C67.8619 3.49704 67.814 3.49267 67.767 3.49942H62.9737C62.8892 3.49108 62.8047 3.51648 62.7388 3.57009C62.6744 3.62153 62.6326 3.69613 62.6224 3.77795C62.6202 3.79451 62.6202 3.81128 62.6224 3.82784V15.2498Z"
      fill="#EFEFEF" />
    <path
      d="M50.7369 15.5823C50.7521 15.5844 50.7674 15.5844 50.7826 15.5823H55.5634C55.6053 15.5866 55.6476 15.5825 55.6879 15.5704C55.7282 15.5583 55.7657 15.5383 55.7983 15.5117C55.8628 15.4602 55.9045 15.3856 55.9147 15.3038C55.9169 15.2879 55.9169 15.2719 55.9147 15.256V13.1961C56.6984 13.2065 57.191 13.7698 57.7106 14.3664C58.301 15.0419 58.9121 15.7403 59.9971 15.7403H60.0907C60.4132 15.7404 60.7337 15.6899 61.0406 15.5907C61.0879 15.5754 61.1305 15.5483 61.1643 15.5119C61.1981 15.4755 61.2221 15.4311 61.2339 15.3828C61.2429 15.3462 61.2425 15.308 61.2327 15.2716C61.2228 15.2353 61.204 15.202 61.1778 15.1749L61.1591 15.1562C61.117 15.1137 61.0616 15.0869 61.0022 15.0805C60.9427 15.0741 60.8829 15.0883 60.8327 15.1209C60.5787 15.2605 60.2907 15.326 60.0013 15.31C59.1179 15.31 58.6024 14.7135 58.0557 14.0837C57.7604 13.704 57.4101 13.3705 57.0164 13.0942C59.6105 12.6827 61.3233 10.7392 61.3233 8.11803C61.3233 5.39296 59.1615 3.49103 56.0665 3.49103H50.7826C50.738 3.49019 50.6936 3.4983 50.6521 3.51488C50.6107 3.53145 50.573 3.55616 50.5412 3.58754C50.5094 3.61892 50.4843 3.65634 50.4672 3.6976C50.4501 3.73885 50.4414 3.78311 50.4417 3.82776V15.2498C50.4377 15.3328 50.4663 15.4141 50.5215 15.4762C50.5767 15.5384 50.654 15.5765 50.7369 15.5823ZM55.9189 3.9213H56.0436C58.9391 3.9213 60.8847 5.61329 60.8847 8.12842C60.8847 10.8992 58.8892 12.7617 55.9189 12.7721V3.9213Z"
      fill="#EFEFEF" />
    <path
      d="M75.5472 15.834C77.2187 15.834 78.8218 15.17 80.0037 13.9881C81.1856 12.8061 81.8496 11.2031 81.8496 9.53162C81.8496 7.86012 81.1856 6.25709 80.0037 5.07517C78.8218 3.89325 77.2187 3.22925 75.5472 3.22925C73.8758 3.22925 72.2727 3.89325 71.0908 5.07517C69.9089 6.25709 69.2449 7.86012 69.2449 9.53162C69.2449 11.2031 69.9089 12.8061 71.0908 13.9881C72.2727 15.17 73.8758 15.834 75.5472 15.834ZM75.3186 3.66368C75.3947 3.65843 75.4711 3.65843 75.5472 3.66368C77.1068 3.66368 78.6025 4.28322 79.7053 5.38601C80.8081 6.4888 81.4277 7.98451 81.4277 9.54409C81.4277 11.1037 80.8081 12.5994 79.7053 13.7022C78.6025 14.805 77.1068 15.4245 75.5472 15.4245C75.4723 15.4251 75.3973 15.4217 75.3228 15.4141L75.3186 3.66368Z"
      fill="#EFEFEF" />
    <path
      d="M88.0398 15.2375C88.0361 15.2794 88.0406 15.3216 88.0533 15.3617C88.0659 15.4018 88.0863 15.4391 88.1133 15.4713C88.1404 15.5036 88.1735 15.5302 88.2108 15.5496C88.2481 15.569 88.2889 15.5809 88.3308 15.5846H93.7352C97.0277 15.5846 99.416 13.0383 99.416 9.52749C99.416 6.0167 97.0277 3.4995 93.7373 3.4995H88.389C88.3468 3.49583 88.3044 3.50055 88.264 3.5134C88.2237 3.52624 88.1864 3.54695 88.1541 3.57433C88.1223 3.59976 88.0959 3.63121 88.0762 3.66688C88.0566 3.70255 88.0442 3.74173 88.0398 3.78219C88.0375 3.79735 88.0375 3.81276 88.0398 3.82792V15.2375ZM93.519 3.92146H93.7269C96.7824 3.92146 99.0024 6.28069 99.0024 9.53372C99.0024 12.7473 96.7471 15.1709 93.7581 15.1709H93.7227C93.6583 15.1709 93.5938 15.1709 93.5273 15.1709L93.519 3.92146Z"
      fill="#EFEFEF" />
    <path
      d="M2.48178 15.5451C2.51134 15.5624 2.5437 15.5744 2.57739 15.5805H2.61481C2.66658 15.5819 2.71755 15.5675 2.76097 15.5393C2.8044 15.5111 2.83824 15.4704 2.85801 15.4225C2.88919 15.3601 2.92037 15.2874 2.96402 15.1897C3.05548 14.9818 3.19267 14.6617 3.5003 14.0568L3.95344 13.1921H7.64714L7.78017 13.4707C8.40376 14.7345 8.5264 15.0109 8.63033 15.2313L8.65527 15.2874C8.69189 15.3736 8.75251 15.4474 8.8299 15.5001C8.90729 15.5528 8.99819 15.5821 9.09178 15.5846H14.5544C14.6005 15.5851 14.646 15.5737 14.6864 15.5515C14.7268 15.5293 14.7608 15.497 14.7851 15.4578C14.8116 15.4124 14.8255 15.3608 14.8255 15.3082C14.8255 15.2556 14.8116 15.2039 14.7851 15.1585C14.7248 15.0483 14.6438 14.8904 14.4047 14.4227L8.91718 3.62842C8.8923 3.56098 8.84544 3.50386 8.78415 3.46629V3.40186L8.62409 3.41641C8.56511 3.42153 8.50845 3.44183 8.45964 3.47535C8.41083 3.50886 8.37153 3.55443 8.34556 3.60764L3.12199 13.8573C2.76239 14.5661 2.58363 14.8571 2.47762 15.0317C2.43813 15.0941 2.40903 15.144 2.38824 15.1835C2.37061 15.2133 2.35904 15.2464 2.3542 15.2808C2.34936 15.3151 2.35134 15.3501 2.36003 15.3837C2.36872 15.4173 2.38394 15.4488 2.40483 15.4765C2.42572 15.5042 2.45187 15.5275 2.48178 15.5451ZM5.83667 9.46726L7.43928 12.7723H4.1613L5.83667 9.46726Z"
      fill="#EFEFEF" />
    <path
      d="M15.442 15.5826H15.4877C15.5515 15.5768 15.6106 15.5469 15.6531 15.499C15.6956 15.4511 15.7182 15.3888 15.7163 15.3248C15.7163 15.2978 15.7163 15.2666 15.7163 15.2167C15.7039 15.0525 15.6727 14.668 15.6727 13.4707V10.041L24.7646 15.5618C24.8331 15.6008 24.9102 15.6222 24.9891 15.6241C25.0436 15.6251 25.0974 15.6115 25.145 15.5846C25.1896 15.5569 25.2262 15.5179 25.251 15.4716C25.2758 15.4253 25.288 15.3732 25.2863 15.3207V5.61144C25.2863 4.36427 25.3154 3.99012 25.3279 3.84669C25.3305 3.81904 25.3305 3.7912 25.3279 3.76355C25.3293 3.73024 25.3241 3.69698 25.3126 3.66568C25.3011 3.63438 25.2836 3.60565 25.261 3.58113C25.2384 3.55661 25.2112 3.53678 25.181 3.52279C25.1507 3.50879 25.118 3.5009 25.0847 3.49956H25.0389C24.975 3.50436 24.9154 3.53403 24.8731 3.58222C24.8307 3.6304 24.8089 3.69325 24.8124 3.75731C24.8107 3.78708 24.8107 3.81692 24.8124 3.84669C24.8124 3.98804 24.8519 4.36635 24.8519 5.61144V9.05779L15.7725 3.52243C15.7199 3.48172 15.6571 3.45646 15.591 3.44949C15.5249 3.44251 15.4582 3.45409 15.3983 3.48293C15.3503 3.51035 15.3107 3.55044 15.284 3.59884C15.2572 3.64723 15.2443 3.70206 15.2466 3.75731V13.4707C15.2466 14.668 15.2175 15.0525 15.205 15.2188C15.2024 15.2506 15.2024 15.2826 15.205 15.3144C15.2028 15.3476 15.2071 15.381 15.2178 15.4125C15.2286 15.444 15.2454 15.4731 15.2675 15.498C15.2895 15.5229 15.3163 15.5433 15.3462 15.5578C15.3762 15.5723 15.4087 15.5807 15.442 15.5826Z"
      fill="#EFEFEF" />
    <path
      d="M32.3557 15.834C35.6814 15.834 37.6582 14.0339 37.6582 11.0178V5.29746C37.6582 4.52837 37.6852 4.15006 37.6977 3.94636C37.6977 3.86113 37.6977 3.80293 37.6977 3.76552C37.6977 3.73167 37.691 3.69815 37.6781 3.66688C37.6651 3.63561 37.6461 3.60719 37.6222 3.58326C37.5983 3.55933 37.5699 3.54034 37.5386 3.52739C37.5073 3.51443 37.4738 3.50777 37.44 3.50777C37.4061 3.50777 37.3726 3.51443 37.3413 3.52739C37.31 3.54034 37.2816 3.55933 37.2577 3.58326C37.2338 3.60719 37.2148 3.63561 37.2018 3.66688C37.1889 3.69815 37.1822 3.73167 37.1822 3.76552C37.1822 3.81125 37.1822 3.86945 37.1822 3.95467C37.1947 4.16253 37.2217 4.53668 37.2217 5.30577V11.0178C37.2217 13.7387 35.4486 15.3829 32.4554 15.412V3.83619C32.46 3.79227 32.455 3.74788 32.4408 3.70608C32.4265 3.66428 32.4034 3.62606 32.373 3.59406C32.3425 3.56205 32.3055 3.53702 32.2645 3.52069C32.2235 3.50436 32.1794 3.49711 32.1353 3.49945H27.2942C27.2512 3.49893 27.2085 3.50753 27.169 3.52466C27.1294 3.5418 27.094 3.5671 27.065 3.59889C27.0359 3.63069 27.0139 3.66827 27.0004 3.70916C26.9869 3.75006 26.9822 3.79335 26.9866 3.83619V10.6416C26.9866 13.8447 29.0444 15.834 32.3557 15.834Z"
      fill="#EFEFEF" />
    <path
      d="M42.3767 2.10273C42.3981 2.14505 42.4308 2.18063 42.4711 2.20557C42.5114 2.23051 42.5579 2.24383 42.6053 2.24408C42.6428 2.24398 42.6797 2.23545 42.7134 2.21913C42.7856 2.18261 42.8551 2.14093 42.9213 2.09441C43.0764 1.99588 43.2367 1.90568 43.4014 1.82419L44.5426 1.2505C44.7523 1.15019 44.9682 1.0634 45.189 0.990669L45.4177 0.907524L45.3408 0.826458C45.3604 0.770628 45.3604 0.709763 45.3408 0.653933L45.3179 0.622753C45.2913 0.571142 45.2459 0.531707 45.1911 0.512587C45.1567 0.50204 45.1206 0.498628 45.0848 0.502559C45.0491 0.506491 45.0145 0.517684 44.9833 0.535451C44.9479 0.554159 44.9043 0.579102 44.8502 0.614439C44.7059 0.706211 44.5567 0.79017 44.4033 0.865952L43.2247 1.44589C43.0514 1.5267 42.8729 1.59613 42.6905 1.65375C42.6032 1.68493 42.5367 1.70987 42.4827 1.73274C42.4236 1.76183 42.3784 1.81314 42.3569 1.87545C42.3355 1.93776 42.3396 2.00602 42.3684 2.06531L42.3767 2.10273Z"
      fill="#EFEFEF" />
    <path
      d="M37.7206 15.5451C37.7501 15.5624 37.7825 15.5744 37.8162 15.5805H37.8536C37.9054 15.5821 37.9565 15.5679 38 15.5397C38.0435 15.5114 38.0773 15.4705 38.0968 15.4225C38.128 15.3601 38.1592 15.2874 38.2028 15.1897C38.2943 14.9818 38.4315 14.6617 38.7391 14.0568L39.186 13.1921H42.8859L43.019 13.4707C43.6425 14.7345 43.7652 15.0109 43.8691 15.2312L43.8941 15.2874C43.9307 15.3735 43.9913 15.4474 44.0687 15.5001C44.1461 15.5528 44.237 15.5821 44.3306 15.5846H49.8015C49.8476 15.5851 49.8931 15.5737 49.9335 15.5515C49.9739 15.5293 50.0079 15.497 50.0322 15.4578C50.0587 15.4124 50.0726 15.3607 50.0726 15.3082C50.0726 15.2556 50.0587 15.2039 50.0322 15.1585C49.9719 15.0483 49.8929 14.8945 49.6601 14.4393L44.1643 3.63048C44.1477 3.58372 44.1202 3.5416 44.084 3.50762C44.0479 3.47364 44.0041 3.44877 43.9564 3.43509L43.9356 3.41431H43.8691C43.8095 3.41825 43.7521 3.43806 43.7028 3.47169C43.6534 3.50531 43.614 3.55153 43.5885 3.60554L38.3712 13.8531C38.0116 14.5599 37.8328 14.8529 37.7268 15.0275C37.6873 15.0899 37.6582 15.1398 37.6374 15.1793C37.6187 15.2087 37.606 15.2416 37.6 15.2759C37.5941 15.3103 37.595 15.3455 37.6027 15.3795C37.6104 15.4136 37.6248 15.4457 37.6451 15.4741C37.6653 15.5025 37.6909 15.5267 37.7206 15.5451ZM41.0755 9.46724L42.6781 12.7722H39.4001L41.0755 9.46724Z"
      fill="#EFEFEF" />
    <path
      d="M73.8116 47.6783H87.3371C87.4139 47.6806 87.4898 47.6625 87.5573 47.626C87.6248 47.5895 87.6815 47.5359 87.7217 47.4705C87.7646 47.3914 87.7855 47.3022 87.7822 47.2122C87.7789 47.1223 87.7516 47.0349 87.703 46.9591C87.5388 46.6598 87.3184 46.2295 86.5909 44.8035L85.3729 42.4151L73.1714 18.4039C73.1352 18.3039 73.0715 18.2162 72.9877 18.1507C72.9038 18.0853 72.8032 18.0448 72.6974 18.0339H72.6725C72.5634 18.0415 72.4583 18.0783 72.3684 18.1405C72.2784 18.2027 72.2068 18.2879 72.1612 18.3873L59.255 43.7288C58.355 45.5019 57.9143 46.2232 57.6503 46.6577C57.561 46.8053 57.4924 46.9196 57.4425 47.0194C57.3828 47.1169 57.364 47.234 57.3901 47.3452C57.4161 47.4565 57.485 47.553 57.5817 47.6139C57.6291 47.6443 57.6821 47.6649 57.7376 47.6742H57.7896C57.8778 47.6771 57.9645 47.6518 58.0374 47.6021C58.1103 47.5524 58.1654 47.4808 58.1949 47.3977C58.2656 47.2543 58.3342 47.0963 58.4298 46.876C58.6377 46.3854 58.9973 45.5664 59.7872 44.0177L60.9512 41.7665H70.3756L70.7623 42.5751C72.4376 46.0237 72.6704 46.508 72.9365 47.0776C73.01 47.2507 73.1314 47.3991 73.2864 47.5056C73.4415 47.612 73.6237 47.6719 73.8116 47.6783ZM61.263 41.1616L65.7611 32.2772L70.0742 41.1616H61.263Z"
      fill="#EFEFEF" />
    <path
      d="M126.384 14.4417C126.419 14.5095 126.472 14.5663 126.537 14.6059C126.603 14.6455 126.678 14.6663 126.754 14.6662C126.815 14.6658 126.874 14.6515 126.929 14.6246C127.115 14.5338 127.296 14.431 127.469 14.317C127.756 14.1382 128.115 13.9158 128.643 13.6497L131.481 12.2529C132.004 12.0028 132.542 11.7842 133.092 11.5981H133.104C133.151 11.5792 133.194 11.5511 133.229 11.5153C133.265 11.4796 133.293 11.4371 133.312 11.3903C133.348 11.2988 133.348 11.1969 133.312 11.1055L133.264 11.0078C133.241 10.9586 133.208 10.915 133.166 10.8803C133.125 10.8455 133.076 10.8205 133.023 10.807C132.971 10.7934 132.916 10.7918 132.863 10.8021C132.809 10.8123 132.759 10.8343 132.715 10.8665C132.63 10.9101 132.533 10.9704 132.408 11.0473C132.042 11.2739 131.664 11.4821 131.277 11.6709L128.367 13.1093C127.925 13.3194 127.471 13.504 127.008 13.6622C126.846 13.7158 126.687 13.7775 126.532 13.8472C126.439 13.8898 126.366 13.9675 126.33 14.0633C126.294 14.1592 126.298 14.2654 126.34 14.3585L126.384 14.4417Z"
      fill="#EFEFEF" />
    <path
      d="M144.915 46.9529C144.761 46.6702 144.551 46.2607 143.93 45.0405C143.607 44.4169 143.177 43.5646 142.585 42.4088L130.387 18.4039C130.352 18.3045 130.288 18.2172 130.205 18.1517C130.122 18.0863 130.023 18.0455 129.918 18.0339H129.893C129.783 18.0406 129.676 18.077 129.585 18.1392C129.494 18.2014 129.421 18.2872 129.375 18.3873L116.481 43.7288C115.581 45.4999 115.139 46.2232 114.875 46.6577C114.804 46.7762 114.744 46.8656 114.696 46.9591C114.046 47.325 113.306 47.5021 112.561 47.4705C110.275 47.4705 108.907 45.8886 107.572 44.3524C106.654 43.2944 105.702 42.2051 104.455 41.6335C107.722 41.2614 110.483 39.9497 112.457 37.817C114.492 35.6239 115.575 32.7325 115.575 29.4564C115.575 22.8461 110.32 18.2314 102.796 18.2314H89.7421C89.6636 18.2278 89.5851 18.2397 89.5112 18.2665C89.4373 18.2933 89.3694 18.3345 89.3115 18.3876C89.2535 18.4407 89.2066 18.5048 89.1735 18.5761C89.1404 18.6474 89.1217 18.7245 89.1185 18.8031C89.1164 18.8168 89.1164 18.8309 89.1185 18.8446V47.0381C89.1022 47.1908 89.1471 47.3437 89.2433 47.4633C89.3396 47.5829 89.4793 47.6595 89.6319 47.6763C89.6679 47.6794 89.7041 47.6794 89.74 47.6763H101.648C101.8 47.6871 101.949 47.6378 102.064 47.5391C102.124 47.4907 102.173 47.4308 102.209 47.3629C102.244 47.295 102.266 47.2206 102.272 47.1441C102.274 47.1144 102.274 47.0845 102.272 47.0547V41.7707H102.434C104.502 41.7707 105.76 43.2112 107.092 44.7391C108.52 46.375 110.002 48.065 112.574 48.065H112.804C113.575 48.0652 114.341 47.9438 115.074 47.7054C115.117 47.6906 115.158 47.6711 115.197 47.6472C115.308 47.5987 115.396 47.5093 115.442 47.3977C115.513 47.2543 115.581 47.0963 115.677 46.876C115.885 46.3875 116.247 45.5685 117.034 44.0177L118.2 41.7665H127.615L128.003 42.5751C129.639 45.9426 129.899 46.4872 130.175 47.0776C130.25 47.2502 130.372 47.398 130.527 47.5037C130.682 47.6094 130.865 47.6685 131.053 47.6742H144.564C144.64 47.6766 144.716 47.6587 144.784 47.6221C144.851 47.5856 144.908 47.5319 144.948 47.4663C144.99 47.3858 145.009 47.2954 145.003 47.205C144.997 47.1145 144.967 47.0274 144.915 46.9529ZM102.415 41.1554H102.255V18.8405C102.341 18.8405 102.478 18.8405 102.611 18.8405H102.767C110.071 18.8405 114.979 23.1081 114.979 29.4606C114.979 36.4533 109.93 41.1554 102.415 41.1554ZM118.477 41.1554L122.977 32.271L127.29 41.1554H118.477Z"
      fill="#EFEFEF" />
    <path
      d="M29.6784 38.291L29.6514 38.2702C29.5538 38.2103 29.4367 38.1909 29.325 38.2161C29.2443 38.235 29.1707 38.2769 29.1132 38.3366C29.0557 38.3964 29.0166 38.4715 29.0008 38.5529C27.4335 43.0969 22.2411 47.6992 15.3463 47.6992C15.0907 47.6992 14.7228 47.6742 14.5606 47.6535V18.219C14.729 18.1982 15.0907 18.1733 15.3463 18.1733C22.1704 18.1733 27.3566 22.9085 28.7659 27.3445C28.7759 27.4005 28.7969 27.454 28.8276 27.5019C28.8583 27.5497 28.8982 27.5911 28.9449 27.6235C28.9917 27.656 29.0443 27.6789 29.0999 27.6909C29.1555 27.703 29.2129 27.7039 29.2689 27.6937C29.3214 27.6853 29.3717 27.6662 29.4165 27.6376L29.4809 27.5773C29.6077 27.4547 29.6493 27.3528 29.5537 27.066C27.6143 22.3369 22.4698 17.5684 15.3505 17.5684C11.3066 17.6154 7.44436 19.2549 4.60141 22.1312C1.75845 25.0076 0.164063 28.8888 0.164062 32.9331C0.164063 36.9774 1.75845 40.8586 4.60141 43.735C7.44436 46.6113 11.3066 48.2508 15.3505 48.2978C18.4153 48.2901 21.4118 47.3919 23.9754 45.7123C26.5391 44.0328 28.5594 41.6444 29.7906 38.8377C29.8398 38.7576 29.8603 38.6633 29.849 38.5701C29.8377 38.4768 29.7951 38.3902 29.7283 38.3242L29.6784 38.291Z"
      fill="#EFEFEF" />
    <path
      d="M32.4679 47.6783C32.5039 47.6814 32.54 47.6814 32.576 47.6783H52.273C54.8962 47.6783 55.7671 47.724 56.1849 47.7448L56.4614 47.7552H56.4863C56.5892 47.7524 56.6874 47.7115 56.7619 47.6405C56.8364 47.5694 56.8819 47.4733 56.8896 47.3706V47.2792C56.8811 47.1762 56.833 47.0806 56.7555 47.0124C56.678 46.9442 56.577 46.9087 56.4739 46.9133C56.3949 46.9133 56.3097 46.9133 56.1808 46.9341C55.7651 46.9778 54.8962 47.0692 52.2771 47.0692H45.0851V29.9927H50.3419C52.4081 29.9927 53.2749 30.0529 53.7405 30.0862C53.9213 30.0987 54.044 30.1091 54.1417 30.107C54.2482 30.1106 54.352 30.0731 54.4317 30.0023C54.5114 29.9315 54.5609 29.8328 54.5699 29.7266V29.6372C54.5624 29.5335 54.5148 29.4369 54.4371 29.3678C54.3595 29.2987 54.258 29.2626 54.1541 29.2672C54.044 29.2672 53.9255 29.2672 53.7384 29.288C53.2728 29.3212 52.406 29.3836 50.3399 29.3836H45.081V18.8321H50.3378C51.4367 18.8155 52.5357 18.8565 53.6303 18.9547C53.7987 18.9743 53.968 18.9854 54.1375 18.988C54.244 18.9916 54.3479 18.9541 54.4276 18.8833C54.5072 18.8125 54.5567 18.7138 54.5657 18.6076V18.514C54.5562 18.4115 54.5079 18.3165 54.4306 18.2485C54.3533 18.1805 54.2529 18.1446 54.15 18.1482C53.9982 18.1482 53.8486 18.1482 53.6407 18.1648C53.1522 18.1877 52.3333 18.2272 50.3419 18.2272H32.5677C32.4041 18.2299 32.2482 18.2968 32.1335 18.4135C32.0187 18.5301 31.9545 18.6872 31.9545 18.8508V47.038C31.9461 47.1138 31.9528 47.1905 31.974 47.2637C31.9953 47.3368 32.0308 47.4051 32.0785 47.4646C32.1262 47.524 32.1851 47.5735 32.2519 47.6102C32.3188 47.6469 32.3921 47.67 32.4679 47.6783Z"
      fill="#EFEFEF" />
  </g>
  <defs>
    <clipPath id="clip0_1_184">
      <rect width="145" height="59.69" fill="white" transform="translate(0 0.5)" />
    </clipPath>
  </defs>
</svg>