<svg xmlns="http://www.w3.org/2000/svg" width="31" height="31" viewBox="0 0 31 31" fill="none">
  <g clip-path="url(#clip0_1_63)">
    <path
      d="M18.549 15.467C18.549 16.0458 18.3774 16.6115 18.0558 17.0927C17.7342 17.5739 17.2772 17.9489 16.7425 18.1704C16.2078 18.3918 15.6194 18.4497 15.0518 18.3367C14.4842 18.2237 13.9628 17.945 13.5536 17.5357C13.1445 17.1264 12.8659 16.6049 12.7531 16.0372C12.6403 15.4696 12.6984 14.8812 12.92 14.3466C13.1416 13.8119 13.5168 13.355 13.9981 13.0336C14.4794 12.7123 15.0452 12.5408 15.624 12.541C16.3998 12.5413 17.1438 12.8497 17.6923 13.3984C18.2409 13.9471 18.549 14.6912 18.549 15.467Z"
      fill="white" />
    <path
      d="M22.467 10.29C22.321 9.91138 22.0973 9.56753 21.8104 9.28059C21.5235 8.99366 21.1796 8.76999 20.801 8.62401C20.2789 8.43132 19.7275 8.32986 19.171 8.32402C18.245 8.28202 17.971 8.27301 15.624 8.27301C13.277 8.27301 13.003 8.28202 12.077 8.32402C11.5205 8.32991 10.9691 8.43138 10.447 8.62401C10.0684 8.7701 9.72464 8.99381 9.43771 9.28073C9.15079 9.56766 8.9271 9.91145 8.78101 10.29C8.58838 10.8121 8.4869 11.3635 8.481 11.92C8.439 12.845 8.42999 13.12 8.42999 15.467C8.42999 17.814 8.439 18.088 8.481 19.014C8.48686 19.5705 8.58834 20.1219 8.78101 20.644C8.92699 21.0226 9.15065 21.3665 9.43759 21.6534C9.72453 21.9404 10.0684 22.164 10.447 22.31C10.9691 22.5028 11.5205 22.6043 12.077 22.61C13.002 22.652 13.277 22.661 15.624 22.661C17.971 22.661 18.246 22.652 19.171 22.61C19.7275 22.6043 20.2789 22.5028 20.801 22.31C21.1796 22.164 21.5235 21.9404 21.8104 21.6534C22.0973 21.3665 22.321 21.0226 22.467 20.644C22.6596 20.1219 22.7611 19.5705 22.767 19.014C22.809 18.088 22.818 17.814 22.818 15.467C22.818 13.12 22.809 12.846 22.767 11.92C22.7613 11.3635 22.6598 10.8121 22.467 10.29ZM15.625 19.973C14.7336 19.973 13.8622 19.7087 13.121 19.2134C12.3799 18.7182 11.8022 18.0143 11.4611 17.1908C11.12 16.3672 11.0307 15.461 11.2046 14.5867C11.3785 13.7125 11.8077 12.9094 12.4381 12.2791C13.0684 11.6488 13.8715 11.2195 14.7457 11.0456C15.62 10.8717 16.5262 10.961 17.3498 11.3021C18.1733 11.6432 18.8772 12.2209 19.3724 12.9621C19.8677 13.7032 20.132 14.5746 20.132 15.466C20.132 16.058 20.0154 16.6441 19.7888 17.191C19.5623 17.7379 19.2302 18.2348 18.8116 18.6533C18.393 19.0718 17.896 19.4038 17.3491 19.6302C16.8021 19.8567 16.2159 19.9731 15.624 19.973H15.625ZM20.31 11.834C20.1017 11.834 19.8981 11.7722 19.7249 11.6565C19.5517 11.5407 19.4167 11.3762 19.3371 11.1837C19.2574 10.9913 19.2366 10.7795 19.2773 10.5752C19.318 10.3709 19.4184 10.1833 19.5658 10.0361C19.7131 9.88885 19.9009 9.78864 20.1052 9.74812C20.3095 9.70761 20.5213 9.7286 20.7137 9.80846C20.906 9.88831 21.0704 10.0234 21.186 10.1967C21.3016 10.37 21.3632 10.5737 21.363 10.782C21.3627 11.0611 21.2517 11.3287 21.0542 11.526C20.8568 11.7232 20.5891 11.834 20.31 11.834Z"
      fill="white" />
    <path
      d="M15.5 0.5C12.5333 0.5 9.63319 1.37973 7.16645 3.02796C4.69972 4.67618 2.77713 7.01886 1.64181 9.75975C0.506499 12.5006 0.209449 15.5166 0.788228 18.4264C1.36701 21.3361 2.79562 24.0088 4.8934 26.1066C6.99119 28.2044 9.66394 29.633 12.5737 30.2118C15.4834 30.7906 18.4994 30.4935 21.2403 29.3582C23.9812 28.2229 26.3238 26.3003 27.9721 23.8336C29.6203 21.3668 30.5 18.4667 30.5 15.5C30.5 11.5218 28.9197 7.70644 26.1066 4.8934C23.2936 2.08035 19.4783 0.5 15.5 0.5ZM24.061 19.051C24.0469 19.7656 23.9116 20.4726 23.661 21.142C23.4399 21.7143 23.1017 22.234 22.6678 22.6678C22.234 23.1016 21.7143 23.4399 21.142 23.661C20.4726 23.9115 19.7656 24.0468 19.051 24.061C18.132 24.103 17.839 24.113 15.5 24.113C13.161 24.113 12.867 24.103 11.949 24.061C11.2344 24.0468 10.5274 23.9115 9.85801 23.661C9.28572 23.4399 8.76598 23.1016 8.33217 22.6678C7.89836 22.234 7.56007 21.7143 7.33901 21.142C7.08836 20.4726 6.9531 19.7656 6.93901 19.051C6.90001 18.133 6.88701 17.839 6.88701 15.5C6.88701 13.161 6.89701 12.867 6.93901 11.949C6.95314 11.2344 7.08839 10.5274 7.33901 9.858C7.56044 9.28593 7.89887 8.76639 8.33264 8.33263C8.7664 7.89887 9.28594 7.56044 9.85801 7.339C10.5274 7.08848 11.2344 6.95323 11.949 6.939C12.868 6.897 13.161 6.887 15.5 6.887C17.839 6.887 18.133 6.897 19.051 6.939C19.7656 6.95327 20.4726 7.08852 21.142 7.339C21.7141 7.56033 22.2337 7.89872 22.6675 8.3325C23.1013 8.76627 23.4397 9.28587 23.661 9.858C23.9116 10.5274 24.0469 11.2344 24.061 11.949C24.103 12.868 24.113 13.161 24.113 15.5C24.113 17.839 24.1 18.133 24.061 19.051Z"
      fill="white" />
  </g>
  <defs>
    <clipPath id="clip0_1_63">
      <rect width="30" height="30" fill="white" transform="translate(0.5 0.5)" />
    </clipPath>
  </defs>
</svg>