<svg width="140" height="59" viewBox="0 0 140 59" fill="none" xmlns="http://www.w3.org/2000/svg">
<g id="Figure &#226;&#134;&#146; Link &#226;&#134;&#146; SVG" clip-path="url(#clip0_1_320)">
<path id="Vector" d="M38.2626 57.6569C38.1241 57.6569 37.9355 57.669 37.7147 57.683C37.4378 57.6991 37.1227 57.7192 36.8358 57.7192H35.71C37.3415 55.0963 38.4011 53.2199 38.4011 51.4459C38.4011 49.8666 37.0385 48.8471 34.9293 48.8471C33.6873 48.821 32.4785 49.2491 31.5298 50.0512C31.475 50.0831 31.4349 50.1354 31.4184 50.1966C31.4019 50.2578 31.4102 50.3231 31.4415 50.3783L31.4736 50.4204L31.4997 50.4445C31.5482 50.4832 31.6096 50.502 31.6714 50.4972C31.7333 50.4923 31.7909 50.4642 31.8328 50.4184C32.5774 49.6458 33.6109 49.2505 34.9093 49.2445C34.835 51.0967 33.2717 53.9263 30.9539 57.5907C30.913 57.6459 30.8884 57.7114 30.8827 57.7798C30.8771 57.8482 30.8906 57.9169 30.9218 57.978C30.9469 58.0224 30.9834 58.0594 31.0274 58.0851C31.0715 58.1108 31.1216 58.1244 31.1726 58.1245H31.3733H38.2606C38.2891 58.128 38.318 58.1253 38.3453 58.1166C38.3727 58.108 38.3978 58.0936 38.4191 58.0743C38.4527 58.0472 38.4767 58.0099 38.4874 57.968V57.8656C38.4872 57.8369 38.4811 57.8085 38.4695 57.7822C38.4579 57.756 38.4411 57.7323 38.42 57.7128C38.399 57.6932 38.3742 57.6782 38.3471 57.6686C38.32 57.659 38.2913 57.655 38.2626 57.6569Z" fill="#BB2832"/>
<path id="Vector_2" d="M43.7833 48.8491C42.5283 48.8491 41.3247 49.3477 40.4372 50.2351C39.5498 51.1225 39.0513 52.3261 39.0513 53.5811C39.0513 54.8362 39.5498 56.0398 40.4372 56.9272C41.3247 57.8146 42.5283 58.3132 43.7833 58.3132H44.0241V58.3031C45.2565 58.2409 46.4159 57.6995 47.2547 56.7944C48.0935 55.8893 48.5454 54.6923 48.514 53.4587C48.4826 52.2251 47.9703 51.0526 47.0865 50.1914C46.2027 49.3302 45.0173 48.8485 43.7833 48.8491ZM43.9137 57.9178H43.7913C42.6581 57.8934 41.5795 57.4261 40.7867 56.6161C39.9939 55.806 39.5499 54.7176 39.5499 53.5842C39.5499 52.4507 39.9939 51.3623 40.7867 50.5522C41.5795 49.7422 42.6581 49.2749 43.7913 49.2505H43.8335H43.9177L43.9137 57.9178Z" fill="#BB2832"/>
<path id="Vector_3" d="M87.0377 48.8491C85.7821 48.8491 84.578 49.3479 83.6902 50.2357C82.8024 51.1235 82.3036 52.3276 82.3036 53.5832C82.3036 54.8387 82.8024 56.0428 83.6902 56.9306C84.578 57.8184 85.7821 58.3172 87.0377 58.3172H87.1862V58.3071C88.4292 58.271 89.608 57.7469 90.4674 56.8481C91.3269 55.9493 91.7978 54.7483 91.7783 53.5049C91.7587 52.2615 91.2503 51.0758 90.3631 50.2044C89.4759 49.3331 88.2812 48.8462 87.0377 48.8491ZM87.1721 57.9118H87.0336C86.463 57.9263 85.8951 57.828 85.3626 57.6225C84.83 57.4169 84.3433 57.1082 83.9304 56.7141C83.5175 56.3199 83.1865 55.8481 82.9564 55.3257C82.7263 54.8033 82.6017 54.2406 82.5896 53.6699C82.5776 53.0991 82.6784 52.5317 82.8863 52C83.0942 51.4684 83.405 50.9831 83.801 50.5719C84.1969 50.1607 84.6702 49.8317 85.1936 49.604C85.717 49.3762 86.2803 49.254 86.851 49.2445H87.0517C87.0938 49.2415 87.136 49.2415 87.1781 49.2445L87.1721 57.9118Z" fill="#BB2832"/>
<path id="Vector_4" d="M73.3574 54.1475H73.2329C73.0945 54.1576 72.8095 54.1796 72.0148 54.1796H70.6362C69.8635 54.1796 69.5806 54.1576 69.4461 54.1475H69.3398C69.3091 54.1459 69.2785 54.1504 69.2496 54.1608C69.2207 54.1711 69.1942 54.1872 69.1716 54.2079C69.149 54.2287 69.1307 54.2537 69.1179 54.2816C69.1051 54.3095 69.098 54.3396 69.0969 54.3703V54.4044C69.1015 54.4621 69.1275 54.5159 69.1699 54.5553C69.2122 54.5947 69.2679 54.6168 69.3257 54.6171H69.4461C69.5806 54.6171 69.8635 54.587 70.6362 54.587H72.0148C72.8175 54.587 73.0965 54.6071 73.2329 54.6171C73.2663 54.6193 73.2999 54.6193 73.3333 54.6171H73.3513C73.4057 54.6174 73.4584 54.5982 73.4998 54.5629C73.5238 54.5416 73.5432 54.5157 73.557 54.4867C73.5708 54.4578 73.5786 54.4264 73.5801 54.3944V54.3562C73.5752 54.3001 73.5497 54.2478 73.5086 54.2093C73.4675 54.1708 73.4137 54.1488 73.3574 54.1475Z" fill="#BB2832"/>
<path id="Vector_5" d="M81.521 57.6529C81.3825 57.6529 81.1939 57.665 80.9751 57.679C80.6962 57.6951 80.3731 57.7151 80.0921 57.7151H78.9683C80.6059 55.0802 81.6695 53.1978 81.6695 51.4419C81.6695 49.8626 80.3069 48.8431 78.1957 48.8431C76.9498 48.815 75.7365 49.2432 74.7842 50.0472C74.7326 50.0796 74.6955 50.1306 74.6805 50.1896C74.6656 50.2487 74.6739 50.3112 74.7039 50.3643C74.713 50.3812 74.7245 50.3967 74.738 50.4104L74.7621 50.4345C74.8109 50.4733 74.8726 50.4922 74.9348 50.4873C74.997 50.4825 75.055 50.4543 75.0972 50.4084C75.8418 49.6358 76.8733 49.2405 78.1656 49.2344C78.0894 51.0827 76.5281 53.9123 74.2123 57.5787C74.1674 57.6346 74.14 57.7023 74.1332 57.7737C74.1264 57.845 74.1406 57.9167 74.1741 57.98C74.1987 58.0251 74.235 58.0626 74.2791 58.0888C74.3233 58.1149 74.3737 58.1287 74.425 58.1285H74.5735V58.1165H81.5069C81.5642 58.1199 81.6205 58.1008 81.664 58.0633C81.7074 58.0259 81.7346 57.973 81.7397 57.9158V57.8677C81.7397 57.8391 81.734 57.8109 81.723 57.7845C81.712 57.7582 81.6958 57.7344 81.6754 57.7144C81.6551 57.6944 81.6309 57.6787 81.6044 57.6681C81.5779 57.6576 81.5495 57.6524 81.521 57.6529Z" fill="#BB2832"/>
<path id="Vector_6" d="M56.0689 57.661C55.9304 57.661 55.7397 57.673 55.519 57.687C55.2421 57.7031 54.927 57.7232 54.64 57.7232H53.5162C55.1558 55.0903 56.2194 53.2059 56.2194 51.458C56.2194 49.8786 54.8568 48.8491 52.7456 48.8491C51.4996 48.821 50.2863 49.2492 49.3341 50.0532C49.2798 50.0868 49.2411 50.1405 49.2264 50.2026C49.2118 50.2647 49.2223 50.33 49.2558 50.3843C49.2638 50.398 49.2732 50.4108 49.2839 50.4225L49.308 50.4445C49.3568 50.4833 49.4185 50.5022 49.4807 50.4974C49.5428 50.4925 49.6009 50.4643 49.6431 50.4184C50.3856 49.6458 51.4211 49.2505 52.7195 49.2445C52.6453 51.0967 51.084 53.9263 48.7681 57.5867C48.7243 57.6401 48.6965 57.7048 48.688 57.7734C48.6795 57.8419 48.6906 57.9115 48.72 57.974C48.7443 58.0182 48.78 58.0551 48.8234 58.0809C48.8668 58.1066 48.9164 58.1203 48.9668 58.1205H49.1153H56.0508C56.0799 58.1224 56.1091 58.1184 56.1367 58.1088C56.1642 58.0991 56.1895 58.084 56.211 58.0643C56.2326 58.0446 56.25 58.0208 56.2621 57.9942C56.2742 57.9677 56.2808 57.939 56.2816 57.9098V57.8616C56.2816 57.8342 56.2761 57.8071 56.2652 57.782C56.2544 57.7568 56.2385 57.7341 56.2186 57.7153C56.1987 57.6965 56.1751 57.682 56.1494 57.6726C56.1236 57.6633 56.0962 57.6593 56.0689 57.661Z" fill="#BB2832"/>
<path id="Vector_7" d="M99.3252 57.6569C99.1868 57.6569 98.9981 57.669 98.7774 57.683C98.5004 57.6991 98.1753 57.7191 97.8964 57.7191H96.7726C98.4041 55.0943 99.4637 53.2159 99.4637 51.4459C99.4637 49.8666 98.0991 48.8471 95.99 48.8471C94.7486 48.8213 93.5405 49.2494 92.5925 50.0512C92.5376 50.0831 92.4976 50.1353 92.481 50.1966C92.4645 50.2578 92.4728 50.3231 92.5042 50.3783C92.5143 50.3933 92.5257 50.4074 92.5383 50.4204L92.5624 50.4445C92.6107 50.4836 92.6721 50.5028 92.7341 50.4979C92.7961 50.493 92.8538 50.4646 92.8955 50.4184C93.64 49.6458 94.6715 49.2505 95.9639 49.2445C95.8876 51.0927 94.3263 53.9223 92.0085 57.5947C91.969 57.6503 91.9456 57.7157 91.941 57.7837C91.9364 57.8517 91.9508 57.9197 91.9824 57.98C92.0083 58.0236 92.0449 58.0598 92.0889 58.0852C92.1328 58.1105 92.1825 58.124 92.2332 58.1245H92.3817H99.3152C99.374 58.1272 99.4314 58.1066 99.475 58.0672C99.5186 58.0277 99.5449 57.9726 99.548 57.9138V57.8656C99.5472 57.8373 99.5408 57.8093 99.5292 57.7834C99.5175 57.7575 99.5009 57.7342 99.4802 57.7148C99.4594 57.6954 99.4351 57.6803 99.4085 57.6704C99.3819 57.6604 99.3536 57.6559 99.3252 57.6569Z" fill="#BB2832"/>
<path id="Vector_8" d="M63.0926 53.2641C63.3454 53.0346 63.549 52.7562 63.6911 52.4458C63.8332 52.1353 63.9109 51.7993 63.9194 51.458C63.9194 49.8525 62.4906 48.8491 60.1888 48.8491C58.8824 48.8491 57.8168 49.1803 56.9298 49.8525C56.8787 49.8828 56.841 49.9314 56.8246 49.9885C56.8082 50.0456 56.8142 50.1068 56.8415 50.1596C56.8525 50.1816 56.8667 50.2018 56.8836 50.2198L56.9017 50.2378C56.949 50.278 57.0102 50.298 57.0722 50.2935C57.1341 50.289 57.1918 50.2604 57.2328 50.2138C57.7305 49.6599 58.7861 49.2826 59.8918 49.2605V53.0734H59.8115C58.7198 53.0734 58.4329 53.0554 58.3385 53.0493C58.3218 53.0507 58.3051 53.0507 58.2884 53.0493C58.2588 53.0488 58.2294 53.0542 58.2019 53.0651C58.1744 53.0761 58.1494 53.0924 58.1283 53.1132C58.1071 53.1339 58.0904 53.1586 58.0789 53.1859C58.0675 53.2132 58.0616 53.2425 58.0616 53.2721V53.2962C58.0657 53.3519 58.0912 53.4039 58.1327 53.4413C58.1742 53.4786 58.2285 53.4986 58.2844 53.4969H58.3385C58.4329 53.4969 58.7218 53.4748 59.8115 53.4748H59.8958V57.9058C58.5312 57.8777 57.2208 57.3037 56.6849 56.477C56.6666 56.4512 56.6433 56.4294 56.6164 56.4127C56.5896 56.3961 56.5596 56.3851 56.5284 56.3802C56.4971 56.3753 56.4653 56.3768 56.4346 56.3844C56.4039 56.3921 56.3751 56.4058 56.3498 56.4248C56.3357 56.4337 56.3229 56.4445 56.3117 56.4569L56.2856 56.491C56.2609 56.5361 56.2509 56.5879 56.257 56.6389C56.2631 56.69 56.285 56.7379 56.3197 56.776C57.2569 57.7954 58.5673 58.3132 60.2169 58.3132C62.6571 58.3132 64.2305 57.1191 64.2305 55.2709C64.2265 54.2675 63.5281 53.5932 63.0926 53.2641Z" fill="#BB2832"/>
<path id="Vector_9" d="M108.434 56.0736C108.063 56.1037 107.686 56.1157 107.312 56.1117V49.3569C107.319 49.2817 107.296 49.2068 107.248 49.1486C107.2 49.0904 107.131 49.0534 107.055 49.0458H105.249C105.182 49.0469 105.116 49.0661 105.059 49.1014C105.002 49.1367 104.955 49.1869 104.924 49.2465C103.37 51.7136 101.47 53.9451 99.2831 55.8729C99.2372 55.9067 99.2024 55.9533 99.1831 56.0069C99.1638 56.0605 99.1609 56.1187 99.1747 56.1739L99.2108 56.3124C99.2274 56.3735 99.2647 56.4269 99.3163 56.4635C99.368 56.5001 99.4307 56.5176 99.4938 56.5131H103.158V57.8155C103.154 57.8881 103.177 57.9597 103.222 58.0162C103.273 58.0755 103.345 58.1123 103.423 58.1185H107.019C107.092 58.1226 107.164 58.0982 107.22 58.0503C107.249 58.0251 107.273 57.9944 107.289 57.9599C107.306 57.9254 107.316 57.8879 107.318 57.8496C107.319 57.8383 107.319 57.8268 107.318 57.8155V56.497C107.692 56.497 108.071 56.497 108.444 56.5352C108.505 56.5369 108.565 56.5148 108.61 56.4737C108.655 56.4325 108.683 56.3754 108.687 56.3144V56.2743C108.684 56.2443 108.675 56.2153 108.661 56.1888C108.646 56.1624 108.627 56.1391 108.603 56.1204C108.579 56.1017 108.552 56.0879 108.523 56.0799C108.494 56.0718 108.464 56.0697 108.434 56.0736ZM103.154 56.1057H99.6202C100.901 54.9754 102.084 53.7396 103.158 52.4112L103.154 56.1057Z" fill="#BB2832"/>
<path id="Vector_10" d="M102.687 15.4951H102.697C104.31 15.4965 105.859 14.8566 107.001 13.7164C108.143 12.5762 108.785 11.0289 108.786 9.41505C108.788 7.80118 108.148 6.25287 107.008 5.11075C105.868 3.96863 104.32 3.32624 102.707 3.32491H102.697C101.085 3.32597 99.5395 3.96604 98.3989 5.10483C97.2583 6.24361 96.6158 7.78819 96.6121 9.4V9.42007C96.6262 11.0269 97.2707 12.5639 98.4069 13.7002C99.543 14.8364 101.08 15.481 102.687 15.4951ZM102.466 3.74437C102.539 3.7393 102.613 3.7393 102.687 3.74437C104.192 3.74437 105.636 4.34255 106.701 5.40733C107.766 6.47211 108.364 7.91625 108.364 9.42207C108.364 10.9279 107.766 12.372 106.701 13.4368C105.636 14.5016 104.192 15.0998 102.687 15.0998C102.614 15.1004 102.542 15.0971 102.47 15.0897L102.466 3.74437Z" fill="#BB2832"/>
<path id="Vector_11" d="M60.4637 14.9314C60.4602 14.972 60.4648 15.0128 60.4772 15.0516C60.4897 15.0904 60.5098 15.1262 60.5364 15.1571C60.5629 15.188 60.5954 15.2132 60.6319 15.2313C60.6683 15.2494 60.7081 15.26 60.7487 15.2626H65.4305C65.4722 15.2647 65.514 15.2586 65.5533 15.2445C65.5926 15.2303 65.6287 15.2085 65.6595 15.1803C65.6903 15.1521 65.7152 15.1181 65.7328 15.0802C65.7503 15.0423 65.7601 15.0013 65.7617 14.9595V3.92121C65.7687 3.87594 65.765 3.82964 65.751 3.78604C65.7369 3.74244 65.7128 3.70275 65.6806 3.67015C65.6484 3.63756 65.609 3.61297 65.5656 3.59836C65.5221 3.58376 65.4759 3.57954 65.4305 3.58605H60.8029C60.7212 3.578 60.6397 3.60253 60.5761 3.65429C60.5139 3.70396 60.4736 3.77598 60.4637 3.85498C60.4616 3.87097 60.4616 3.88716 60.4637 3.90315V14.9314Z" fill="#BB2832"/>
<path id="Vector_12" d="M48.9889 15.2525C49.0035 15.2545 49.0184 15.2545 49.033 15.2525H53.6487C53.6891 15.2566 53.7299 15.2527 53.7688 15.241C53.8078 15.2293 53.844 15.21 53.8754 15.1843C53.9376 15.1346 53.978 15.0626 53.9878 14.9836C53.9899 14.9683 53.9899 14.9528 53.9878 14.9374V12.9485C54.7444 12.9586 55.22 13.5025 55.7217 14.0785C56.2916 14.7307 56.8816 15.4051 57.9292 15.4051H58.0195C58.3308 15.4051 58.6403 15.3564 58.9366 15.2606C58.9822 15.2458 59.0233 15.2196 59.056 15.1845C59.0887 15.1494 59.1118 15.1065 59.1232 15.0599C59.1319 15.0246 59.1315 14.9876 59.122 14.9525C59.1125 14.9174 59.0943 14.8853 59.069 14.8592L59.0509 14.8411C59.0104 14.8 58.9569 14.7742 58.8995 14.768C58.8421 14.7618 58.7843 14.7755 58.7359 14.807C58.4907 14.9418 58.2126 15.0051 57.9332 14.9896C57.0803 14.9896 56.5826 14.4136 56.0548 13.8055C55.7697 13.4389 55.4316 13.1169 55.0514 12.8502C57.5559 12.4528 59.2095 10.5763 59.2095 8.04552C59.2095 5.41439 57.1224 3.57802 54.1343 3.57802H49.033C48.9899 3.57722 48.9471 3.58505 48.9071 3.60105C48.8671 3.61706 48.8306 3.64091 48.8 3.67121C48.7693 3.70151 48.745 3.73764 48.7285 3.77747C48.712 3.8173 48.7037 3.86004 48.7039 3.90315V14.9314C48.7001 15.0116 48.7277 15.0901 48.781 15.1501C48.8342 15.2101 48.9089 15.2469 48.9889 15.2525ZM53.9918 3.99346H54.1122C56.9077 3.99346 58.7861 5.62713 58.7861 8.05556C58.7861 10.7308 56.8595 12.5291 53.9918 12.5391V3.99346Z" fill="#BB2832"/>
<path id="Vector_13" d="M72.942 15.4951C74.5557 15.4951 76.1033 14.854 77.2444 13.7129C78.3855 12.5717 79.0265 11.0239 79.0265 9.41003C79.0265 7.79616 78.3855 6.24838 77.2444 5.1072C76.1033 3.96602 74.5557 3.32491 72.942 3.32491C71.3282 3.32491 69.7806 3.96602 68.6395 5.1072C67.4984 6.24838 66.8574 7.79616 66.8574 9.41003C66.8574 11.0239 67.4984 12.5717 68.6395 13.7129C69.7806 14.854 71.3282 15.4951 72.942 15.4951ZM72.7212 3.74437C72.7947 3.7393 72.8685 3.7393 72.942 3.74437C74.4476 3.74437 75.8917 4.34255 76.9563 5.40733C78.021 6.47211 78.6192 7.91625 78.6192 9.42207C78.6192 10.9279 78.021 12.372 76.9563 13.4368C75.8917 14.5016 74.4476 15.0998 72.942 15.0998C72.8696 15.1004 72.7972 15.097 72.7252 15.0897L72.7212 3.74437Z" fill="#BB2832"/>
<path id="Vector_14" d="M85.0028 14.9194C84.9992 14.9598 85.0036 15.0006 85.0158 15.0394C85.028 15.0781 85.0477 15.1141 85.0738 15.1452C85.0999 15.1763 85.1318 15.202 85.1679 15.2208C85.2039 15.2395 85.2433 15.251 85.2837 15.2545H90.5014C93.6801 15.2545 95.9859 12.796 95.9859 9.40625C95.9859 6.01648 93.6801 3.58605 90.5034 3.58605H85.3399C85.2992 3.58251 85.2582 3.58707 85.2193 3.59947C85.1804 3.61187 85.1443 3.63187 85.1131 3.6583C85.0825 3.68286 85.0569 3.71322 85.038 3.74766C85.019 3.7821 85.0071 3.81993 85.0028 3.859C85.0006 3.87363 85.0006 3.88851 85.0028 3.90315V14.9194ZM90.2927 3.99346H90.4933C93.4433 3.99346 95.5866 6.27137 95.5866 9.41227C95.5866 12.515 93.4092 14.8552 90.5234 14.8552H90.4893C90.4271 14.8552 90.3649 14.8552 90.3007 14.8552L90.2927 3.99346Z" fill="#BB2832"/>
<path id="Vector_15" d="M2.40125 15.2162C2.42979 15.2328 2.46103 15.2444 2.49356 15.2503H2.52968C2.57966 15.2516 2.62887 15.2378 2.6708 15.2105C2.71272 15.1833 2.74539 15.144 2.76448 15.0978C2.79458 15.0375 2.82468 14.9673 2.86682 14.873C2.95512 14.6723 3.08757 14.3632 3.38458 13.7792L3.82206 12.9443H7.38812L7.51656 13.2132C8.1186 14.4335 8.237 14.7004 8.33734 14.9131L8.36142 14.9673C8.39677 15.0505 8.45529 15.1218 8.53001 15.1727C8.60472 15.2235 8.69248 15.2519 8.78284 15.2543H14.0567C14.1012 15.2548 14.1451 15.2438 14.1841 15.2223C14.2231 15.2009 14.256 15.1697 14.2794 15.1319C14.305 15.088 14.3185 15.0381 14.3185 14.9874C14.3185 14.9366 14.305 14.8867 14.2794 14.8429C14.2212 14.7365 14.143 14.584 13.9122 14.1324L8.61427 3.71024C8.59025 3.64511 8.54501 3.58997 8.48584 3.55369V3.49148L8.33132 3.50553C8.27437 3.51047 8.21967 3.53008 8.17255 3.56243C8.12543 3.59479 8.08748 3.6388 8.06241 3.69017L3.01934 13.5865C2.67216 14.2709 2.49958 14.5519 2.39723 14.7204C2.35911 14.7807 2.33101 14.8288 2.31094 14.867C2.29392 14.8958 2.28276 14.9277 2.27808 14.9609C2.27341 14.9941 2.27532 15.0279 2.28371 15.0603C2.2921 15.0927 2.30679 15.1232 2.32696 15.1499C2.34713 15.1767 2.37237 15.1992 2.40125 15.2162ZM5.64021 9.3478L7.18744 12.5389H4.02273L5.64021 9.3478Z" fill="#BB2832"/>
<path id="Vector_16" d="M14.9136 15.2525H14.9577C15.0193 15.2469 15.0764 15.2181 15.1174 15.1718C15.1584 15.1256 15.1803 15.0655 15.1785 15.0037C15.1785 14.9776 15.1785 14.9475 15.1785 14.8993C15.1664 14.7408 15.1363 14.3695 15.1363 13.2135V9.90197L23.914 15.2325C23.9802 15.2701 24.0547 15.2908 24.1308 15.2927C24.1835 15.2936 24.2354 15.2805 24.2813 15.2545C24.3244 15.2278 24.3597 15.1901 24.3837 15.1454C24.4076 15.1007 24.4194 15.0504 24.4177 14.9997V5.62512C24.4177 4.42095 24.4458 4.05969 24.4579 3.92121C24.4604 3.89451 24.4604 3.86763 24.4579 3.84093C24.4592 3.80877 24.4542 3.77666 24.4431 3.74644C24.4321 3.71622 24.4151 3.68847 24.3933 3.6648C24.3715 3.64113 24.3453 3.62199 24.3161 3.60847C24.2868 3.59496 24.2553 3.58734 24.2231 3.58605H24.1789C24.1172 3.59068 24.0597 3.61933 24.0188 3.66585C23.9779 3.71237 23.9569 3.77306 23.9602 3.83491C23.9586 3.86366 23.9586 3.89247 23.9602 3.92121C23.9602 4.05768 23.9983 4.42295 23.9983 5.62512V8.95267L15.2327 3.60812C15.182 3.56882 15.1213 3.54443 15.0575 3.5377C14.9937 3.53096 14.9292 3.54214 14.8714 3.56999C14.8251 3.59646 14.7869 3.63518 14.761 3.6819C14.7352 3.72863 14.7227 3.78156 14.725 3.83491V13.2135C14.725 14.3695 14.6969 14.7408 14.6848 14.9013C14.6823 14.932 14.6823 14.9629 14.6848 14.9936C14.6826 15.0257 14.6869 15.0579 14.6972 15.0883C14.7076 15.1187 14.7238 15.1468 14.7451 15.1709C14.7664 15.195 14.7923 15.2146 14.8212 15.2286C14.8501 15.2426 14.8815 15.2508 14.9136 15.2525Z" fill="#BB2832"/>
<path id="Vector_17" d="M31.2428 15.4954C34.4537 15.4954 36.3622 13.7573 36.3622 10.8452V5.32207C36.3622 4.57949 36.3883 4.21423 36.4003 4.01754C36.4003 3.93526 36.4003 3.87906 36.4003 3.84294C36.4003 3.81026 36.3939 3.7779 36.3814 3.7477C36.3689 3.71751 36.3505 3.69007 36.3274 3.66696C36.3043 3.64386 36.2769 3.62552 36.2467 3.61302C36.2165 3.60051 36.1841 3.59407 36.1515 3.59407C36.1188 3.59407 36.0864 3.60051 36.0562 3.61302C36.026 3.62552 35.9986 3.64386 35.9755 3.66696C35.9524 3.69007 35.9341 3.71751 35.9216 3.7477C35.9091 3.7779 35.9026 3.81026 35.9026 3.84294C35.9026 3.88709 35.9026 3.94329 35.9026 4.02557C35.9147 4.22627 35.9407 4.58752 35.9407 5.3301V10.8452C35.9407 13.4724 34.229 15.0599 31.3392 15.088V3.91118C31.3436 3.86877 31.3387 3.82591 31.325 3.78555C31.3113 3.74519 31.2889 3.70829 31.2596 3.67739C31.2302 3.64649 31.1945 3.62232 31.1549 3.60655C31.1153 3.59078 31.0727 3.58379 31.0301 3.58605H26.3563C26.3147 3.58555 26.2735 3.59384 26.2354 3.61039C26.1972 3.62694 26.163 3.65136 26.135 3.68206C26.1069 3.71276 26.0857 3.74904 26.0726 3.78853C26.0596 3.82801 26.0551 3.86981 26.0593 3.91118V10.482C26.0593 13.5747 28.046 15.4954 31.2428 15.4954Z" fill="#BB2832"/>
<path id="Vector_18" d="M40.9176 2.23723C40.9383 2.27809 40.9698 2.31244 41.0088 2.33652C41.0477 2.3606 41.0925 2.37346 41.1383 2.3737C41.1745 2.3736 41.2102 2.36537 41.2427 2.34961C41.3124 2.31435 41.3795 2.27411 41.4434 2.22921C41.5931 2.13408 41.7479 2.04699 41.9069 1.96832L43.0087 1.41445C43.2111 1.31761 43.4196 1.23382 43.6328 1.1636L43.8535 1.08333L43.7793 1.00506C43.7982 0.951164 43.7982 0.892402 43.7793 0.838501L43.7572 0.808399C43.7315 0.758571 43.6877 0.720499 43.6348 0.702039C43.6016 0.691857 43.5667 0.688562 43.5322 0.692358C43.4977 0.696154 43.4643 0.70696 43.4341 0.724114C43.4 0.742175 43.3578 0.766256 43.3057 0.800372C43.1663 0.888973 43.0223 0.97003 42.8742 1.04319L41.7364 1.60309C41.569 1.68111 41.3967 1.74814 41.2206 1.80377C41.1363 1.83387 41.0721 1.85795 41.0199 1.88003C40.9629 1.90812 40.9192 1.95765 40.8985 2.01781C40.8779 2.07797 40.8818 2.14387 40.9096 2.20111L40.9176 2.23723Z" fill="#BB2832"/>
<path id="Vector_19" d="M36.4224 15.2164C36.4509 15.2331 36.4822 15.2446 36.5147 15.2505H36.5508C36.6008 15.2522 36.6502 15.2384 36.6922 15.2111C36.7341 15.1839 36.7668 15.1444 36.7856 15.098C36.8157 15.0378 36.8458 14.9675 36.8879 14.8732C36.9762 14.6725 37.1087 14.3634 37.4057 13.7794L37.8372 12.9445H41.4092L41.5377 13.2135C42.1397 14.4337 42.2581 14.7006 42.3585 14.9134L42.3825 14.9675C42.4179 15.0507 42.4764 15.122 42.5511 15.1729C42.6258 15.2238 42.7136 15.2521 42.804 15.2545H48.0858C48.1304 15.255 48.1743 15.244 48.2133 15.2226C48.2523 15.2011 48.2851 15.17 48.3086 15.1321C48.3342 15.0882 48.3476 15.0384 48.3476 14.9876C48.3476 14.9368 48.3342 14.887 48.3086 14.8431C48.2504 14.7367 48.1741 14.5882 47.9494 14.1487L42.6434 3.71249C42.6274 3.66734 42.6008 3.62667 42.5659 3.59386C42.531 3.56105 42.4888 3.53704 42.4427 3.52383L42.4227 3.50376H42.3585C42.3009 3.50757 42.2455 3.5267 42.1978 3.55916C42.1502 3.59163 42.1121 3.63625 42.0875 3.6884L37.0505 13.5827C36.7033 14.2651 36.5307 14.5481 36.4284 14.7167C36.3903 14.7769 36.3622 14.8251 36.3421 14.8632C36.324 14.8916 36.3117 14.9233 36.306 14.9565C36.3002 14.9897 36.3011 15.0237 36.3086 15.0565C36.316 15.0894 36.3299 15.1204 36.3495 15.1479C36.369 15.1753 36.3938 15.1986 36.4224 15.2164ZM39.6613 9.34804L41.2086 12.5391H38.0439L39.6613 9.34804Z" fill="#BB2832"/>
<path id="Vector_20" d="M71.2663 46.2401H84.3245C84.3985 46.2422 84.4718 46.2248 84.537 46.1896C84.6022 46.1543 84.6569 46.1025 84.6957 46.0394C84.7372 45.963 84.7573 45.8769 84.7542 45.7901C84.751 45.7032 84.7246 45.6188 84.6777 45.5457C84.5191 45.2567 84.3064 44.8412 83.604 43.4644L82.4281 41.1584L70.6482 17.976C70.6132 17.8794 70.5518 17.7947 70.4708 17.7315C70.3899 17.6683 70.2928 17.6292 70.1906 17.6187H70.1666C70.0612 17.626 69.9598 17.6616 69.8729 17.7216C69.7861 17.7817 69.717 17.864 69.6729 17.9599L57.2127 42.4268C56.3438 44.1388 55.9183 44.8352 55.6635 45.2547C55.5772 45.3972 55.511 45.5075 55.4628 45.6039C55.4052 45.698 55.387 45.811 55.4122 45.9185C55.4374 46.0259 55.5039 46.1191 55.5973 46.1779C55.643 46.2073 55.6942 46.2271 55.7478 46.2361H55.7979C55.883 46.2388 55.9668 46.2145 56.0372 46.1665C56.1075 46.1185 56.1608 46.0494 56.1893 45.9691C56.2575 45.8307 56.3237 45.6781 56.416 45.4654C56.6167 44.9917 56.9639 44.201 57.7265 42.7058L58.8503 40.5323H67.9491L68.3223 41.313C69.9398 44.6425 70.1646 45.1102 70.4214 45.6601C70.4924 45.8272 70.6096 45.9705 70.7593 46.0733C70.909 46.176 71.0848 46.2339 71.2663 46.2401ZM59.1513 39.9482L63.494 31.3705L67.6581 39.9482H59.1513Z" fill="#BB2832"/>
<path id="Vector_21" d="M122.022 14.1504C122.056 14.2158 122.107 14.2707 122.17 14.3089C122.233 14.3472 122.306 14.3673 122.379 14.3671C122.438 14.3667 122.495 14.353 122.548 14.327C122.728 14.2393 122.902 14.1401 123.07 14.03C123.347 13.8574 123.694 13.6427 124.203 13.3858L126.943 12.0373C127.448 11.7958 127.967 11.5847 128.498 11.4051H128.51C128.555 11.3868 128.596 11.3597 128.631 11.3252C128.665 11.2907 128.692 11.2496 128.711 11.2044C128.746 11.1162 128.746 11.0178 128.711 10.9295L128.665 10.8352C128.643 10.7877 128.61 10.7456 128.57 10.7121C128.53 10.6785 128.483 10.6544 128.432 10.6413C128.381 10.6282 128.328 10.6266 128.277 10.6365C128.225 10.6465 128.177 10.6677 128.135 10.6987C128.052 10.7409 127.958 10.7991 127.838 10.8733C127.484 11.0921 127.12 11.2931 126.746 11.4754L123.937 12.8641C123.51 13.0669 123.071 13.2451 122.624 13.3979C122.468 13.4496 122.315 13.5092 122.165 13.5765C122.075 13.6176 122.005 13.6926 121.97 13.7851C121.936 13.8777 121.939 13.9802 121.98 14.0701L122.022 14.1504Z" fill="#BB2832"/>
<path id="Vector_22" d="M139.913 45.5396C139.764 45.2667 139.561 44.8713 138.961 43.6932C138.65 43.0911 138.235 42.2683 137.663 41.1524L125.887 17.976C125.852 17.88 125.792 17.7956 125.711 17.7325C125.631 17.6694 125.535 17.6299 125.434 17.6187H125.41C125.303 17.6252 125.201 17.6603 125.113 17.7204C125.025 17.7805 124.955 17.8632 124.91 17.9599L112.462 42.4268C111.593 44.1368 111.165 44.8352 110.91 45.2547C110.842 45.3691 110.784 45.4554 110.738 45.5457C110.11 45.899 109.396 46.07 108.677 46.0394C106.469 46.0394 105.149 44.5121 103.861 43.0289C102.974 42.0074 102.054 40.9557 100.85 40.4038C104.005 40.0446 106.67 38.7782 108.577 36.719C110.541 34.6017 111.587 31.81 111.587 28.647C111.587 22.2649 106.514 17.8094 99.249 17.8094H86.6463C86.5705 17.8059 86.4948 17.8174 86.4234 17.8433C86.3521 17.8692 86.2865 17.9089 86.2306 17.9602C86.1746 18.0115 86.1294 18.0733 86.0974 18.1422C86.0654 18.211 86.0474 18.2855 86.0443 18.3613C86.0423 18.3746 86.0423 18.3882 86.0443 18.4015V45.6219C86.0285 45.7693 86.0719 45.917 86.1648 46.0325C86.2577 46.148 86.3926 46.2219 86.54 46.2381C86.5747 46.2411 86.6096 46.2411 86.6443 46.2381H98.1412C98.2872 46.2485 98.4315 46.2009 98.5426 46.1056C98.6001 46.0589 98.6475 46.001 98.682 45.9355C98.7165 45.87 98.7373 45.7981 98.7433 45.7243C98.7453 45.6956 98.7453 45.6667 98.7433 45.638V40.5363H98.8998C100.897 40.5363 102.111 41.9271 103.397 43.4022C104.776 44.9817 106.207 46.6134 108.689 46.6134H108.912C109.656 46.6136 110.395 46.4964 111.103 46.2662C111.145 46.2519 111.184 46.2331 111.221 46.21C111.328 46.1632 111.413 46.0769 111.458 45.9691C111.527 45.8307 111.593 45.6781 111.685 45.4654C111.886 44.9938 112.235 44.203 112.996 42.7058L114.121 40.5323H123.21L123.585 41.313C125.165 44.5643 125.416 45.0901 125.682 45.6601C125.754 45.8267 125.872 45.9694 126.022 46.0715C126.172 46.1735 126.348 46.2306 126.529 46.2361H139.573C139.648 46.2384 139.721 46.2211 139.786 46.1858C139.851 46.1506 139.906 46.0986 139.945 46.0354C139.985 45.9576 140.003 45.8704 139.997 45.783C139.992 45.6957 139.962 45.6116 139.913 45.5396ZM98.8817 39.9422H98.7272V18.3974C98.8095 18.3974 98.9419 18.3974 99.0704 18.3974H99.2209C106.273 18.3974 111.011 22.5177 111.011 28.651C111.011 35.4025 106.136 39.9422 98.8817 39.9422ZM114.388 39.9422L118.733 31.3645L122.897 39.9422H114.388Z" fill="#BB2832"/>
<path id="Vector_23" d="M28.6581 37.1766L28.632 37.1566C28.5378 37.0987 28.4247 37.08 28.3169 37.1044C28.239 37.1226 28.168 37.163 28.1124 37.2207C28.0569 37.2784 28.0192 37.3509 28.0039 37.4295C26.4908 41.8167 21.4778 46.2602 14.8213 46.2602C14.5744 46.2602 14.2192 46.2361 14.0627 46.216V17.7974C14.2253 17.7773 14.5744 17.7532 14.8213 17.7532C21.4096 17.7532 26.4165 22.3251 27.7771 26.6079C27.7868 26.662 27.807 26.7136 27.8367 26.7599C27.8664 26.8061 27.9049 26.846 27.95 26.8773C27.9951 26.9087 28.0459 26.9308 28.0996 26.9424C28.1533 26.954 28.2087 26.955 28.2628 26.9451C28.3135 26.937 28.362 26.9185 28.4052 26.8909L28.4675 26.8327C28.5899 26.7143 28.63 26.616 28.5377 26.339C26.6654 21.7732 21.6985 17.1692 14.8253 17.1692C10.9212 17.2146 7.19236 18.7975 4.44764 21.5746C1.70292 24.3517 0.163626 28.0989 0.163626 32.0037C0.163626 35.9084 1.70292 39.6557 4.44764 42.4328C7.19236 45.2098 10.9212 46.7927 14.8253 46.8382C17.7842 46.8307 20.6771 45.9634 23.1522 44.3419C25.6273 42.7203 27.5778 40.4143 28.7665 37.7045C28.8139 37.6272 28.8338 37.5361 28.8228 37.4461C28.8119 37.3561 28.7708 37.2724 28.7063 37.2087L28.6581 37.1766Z" fill="#BB2832"/>
<path id="Vector_24" d="M31.3512 46.2401C31.3859 46.2431 31.4208 46.2431 31.4556 46.2401H50.4719C53.0045 46.2401 53.8453 46.2842 54.2487 46.3043L54.5156 46.3143H54.5397C54.639 46.3116 54.7338 46.2722 54.8057 46.2036C54.8777 46.135 54.9216 46.0422 54.929 45.943V45.8547C54.9208 45.7554 54.8744 45.6631 54.7995 45.5972C54.7247 45.5313 54.6272 45.497 54.5276 45.5015C54.4514 45.5015 54.3691 45.5015 54.2447 45.5216C53.8433 45.5637 53.0045 45.652 50.4759 45.652H43.5324V29.1648H48.6076C50.6024 29.1648 51.4392 29.223 51.8887 29.2551C52.0633 29.2672 52.1817 29.2772 52.276 29.2752C52.3789 29.2787 52.4791 29.2425 52.5561 29.1741C52.633 29.1058 52.6807 29.0105 52.6894 28.9079V28.8216C52.6822 28.7215 52.6362 28.6282 52.5613 28.5615C52.4863 28.4948 52.3883 28.4599 52.2881 28.4644C52.1817 28.4644 52.0673 28.4644 51.8867 28.4845C51.4372 28.5166 50.6004 28.5768 48.6056 28.5768H43.5284V18.3894H48.6036C49.6645 18.3734 50.7256 18.413 51.7824 18.5078C51.9449 18.5268 52.1084 18.5375 52.272 18.5399C52.3749 18.5434 52.4751 18.5072 52.552 18.4389C52.629 18.3705 52.6767 18.2752 52.6854 18.1727V18.0824C52.6762 17.9834 52.6296 17.8916 52.5549 17.8259C52.4803 17.7603 52.3834 17.7256 52.284 17.7291C52.1376 17.7291 51.9931 17.7291 51.7924 17.7452C51.3208 17.7673 50.5301 17.8054 48.6076 17.8054H31.4475C31.2896 17.808 31.139 17.8726 31.0283 17.9853C30.9176 18.0979 30.8555 18.2495 30.8555 18.4075V45.6219C30.8475 45.6951 30.8539 45.7691 30.8744 45.8398C30.8949 45.9104 30.9292 45.9764 30.9753 46.0338C31.0213 46.0912 31.0782 46.1389 31.1427 46.1743C31.2072 46.2097 31.2781 46.2321 31.3512 46.2401Z" fill="#BB2832"/>
</g>
<defs>
<clipPath id="clip0_1_320">
<rect width="140" height="57.63" fill="white" transform="translate(0 0.689999)"/>
</clipPath>
</defs>
</svg>
