<svg width="30" height="25" viewBox="0 0 30 25" fill="none" xmlns="http://www.w3.org/2000/svg">
<g id="Figure &#226;&#134;&#146; SVG" clip-path="url(#clip0_1_314)">
<g id="Grupo 7678">
<g id="Grupo 5589">
<path id="Caminho 1355" d="M28.5398 5.49791H1.45874C1.05775 5.48357 0.678992 5.31084 0.405277 5.01744C0.131562 4.72404 -0.0147164 4.33399 -0.00121738 3.93296V2.36802C-0.0144498 1.96707 0.131861 1.57714 0.405521 1.28379C0.679181 0.990453 1.05784 0.817682 1.45874 0.803082H28.5398C28.9406 0.81768 29.3193 0.990423 29.5928 1.28379C29.8663 1.57717 30.0123 1.96716 29.9988 2.36802V3.93296C30.0123 4.33382 29.8663 4.72382 29.5928 5.01719C29.3193 5.31056 28.9406 5.48331 28.5398 5.49791Z" fill="#BB2832"/>
<path id="Caminho 1356" d="M24.4811 15.1479H1.56897C1.15391 15.1479 0.755775 14.9831 0.46228 14.6897C0.168786 14.3962 0.00402832 13.998 0.00402832 13.583V12.018C0.00429323 11.603 0.169087 11.205 0.462524 10.9116C0.755961 10.6181 1.15399 10.4533 1.56897 10.4531H24.4811C24.8961 10.4531 25.294 10.6178 25.5875 10.9113C25.881 11.2048 26.046 11.603 26.046 12.018V13.583C26.046 13.998 25.881 14.3962 25.5875 14.6897C25.294 14.9831 24.8961 15.1479 24.4811 15.1479Z" fill="#BB2832"/>
<path id="Caminho 1357" d="M26.5109 24.7979H1.4569C1.05705 24.7823 0.679756 24.6088 0.407587 24.3155C0.135419 24.0221 -0.0093323 23.6329 0.00499961 23.233V21.668C-0.0093323 21.2681 0.135419 20.8789 0.407587 20.5855C0.679756 20.2922 1.05705 20.1187 1.4569 20.1031H26.5109C26.9108 20.1187 27.2883 20.2922 27.5607 20.5855C27.833 20.8788 27.978 21.268 27.964 21.668V23.233C27.9783 23.633 27.8333 24.0226 27.5609 24.316C27.2885 24.6093 26.9109 24.7825 26.5109 24.7979Z" fill="#BB2832"/>
</g>
</g>
</g>
<defs>
<clipPath id="clip0_1_314">
<rect width="30" height="24" fill="white" transform="translate(0 0.799999)"/>
</clipPath>
</defs>
</svg>
