<svg width="24" height="25" viewBox="0 0 24 25" fill="none" xmlns="http://www.w3.org/2000/svg">
<g id="Link &#226;&#134;&#146; Figure &#226;&#134;&#146; SVG" clip-path="url(#clip0_1_345)">
<path id="Caminho 1390" d="M24.0001 22.2245C24.0121 21.8736 23.9529 21.5238 23.826 21.1964C23.6992 20.869 23.5073 20.5707 23.2621 20.3195L19.024 15.9254C19.7208 14.8082 20.1851 13.562 20.3893 12.2611C20.5934 10.9603 20.5331 9.63162 20.212 8.35464C19.8909 7.07767 19.3155 5.87853 18.5204 4.82901C17.7252 3.77949 16.7265 2.90121 15.5841 2.24649C13.26 0.871319 10.4931 0.450692 7.86545 1.07339C5.23776 1.6961 2.95383 3.31348 1.49399 5.58536C0.797022 6.70265 0.33259 7.94898 0.128392 9.24991C-0.0758049 10.5508 -0.0155023 11.8796 0.305638 13.1566C0.626779 14.4337 1.20215 15.6332 1.99741 16.6828C2.79268 17.7324 3.79149 18.6106 4.93406 19.2653C6.45719 20.1587 8.18061 20.6545 9.94565 20.7069C11.7107 20.7594 13.4606 20.3668 15.034 19.5653L19.268 23.9523C19.5972 24.2953 20.0111 24.5452 20.468 24.6764C21.1564 24.8862 21.8997 24.8184 22.5388 24.4875C23.1779 24.1565 23.6621 23.5887 23.888 22.9054C23.9576 22.683 23.997 22.4523 24.0051 22.2194L24.0001 22.2245ZM5.51011 15.1625C4.63073 14.2245 4.04923 13.0465 3.83933 11.778C3.62943 10.5094 3.80056 9.20711 4.33091 8.0358C4.86126 6.86448 5.72704 5.87683 6.81882 5.19766C7.9106 4.5185 9.17923 4.17839 10.4643 4.22037C11.7494 4.26235 12.9933 4.68453 14.0384 5.4335C15.0836 6.18247 15.883 7.22446 16.3358 8.42789C16.7886 9.63132 16.8742 10.9421 16.582 12.1942C16.2898 13.4464 15.6328 14.5836 14.6941 15.4623C13.435 16.6397 11.7602 17.2695 10.0373 17.213C8.31445 17.1566 6.6844 16.4186 5.5051 15.1613L5.51011 15.1625Z" fill="#BB2832"/>
</g>
<defs>
<clipPath id="clip0_1_345">
<rect width="24" height="24" fill="white" transform="translate(0 0.799999)"/>
</clipPath>
</defs>
</svg>
