<svg xmlns="http://www.w3.org/2000/svg" width="31" height="31" viewBox="0 0 31 31" fill="none">
  <g clip-path="url(#clip0_1_67)">
    <path d="M13.658 18.28L18.487 15.499L13.658 12.718V18.28Z" fill="white" />
    <path
      d="M15.5 0.5C12.5333 0.5 9.63319 1.37973 7.16645 3.02796C4.69972 4.67618 2.77713 7.01886 1.64181 9.75975C0.506499 12.5006 0.209449 15.5166 0.788228 18.4264C1.36701 21.3361 2.79562 24.0088 4.8934 26.1066C6.99119 28.2044 9.66394 29.633 12.5737 30.2118C15.4834 30.7906 18.4994 30.4935 21.2403 29.3582C23.9812 28.2229 26.3238 26.3003 27.9721 23.8336C29.6203 21.3668 30.5 18.4667 30.5 15.5C30.5 11.5218 28.9197 7.70644 26.1066 4.8934C23.2936 2.08035 19.4783 0.5 15.5 0.5ZM24.873 15.515C24.8823 17.0266 24.7531 18.5359 24.487 20.024C24.3797 20.4195 24.1708 20.7801 23.881 21.0699C23.5911 21.3598 23.2306 21.5687 22.835 21.676C20.4008 21.9622 17.9508 22.0911 15.5 22.062C13.0488 22.0924 10.5984 21.9587 8.16501 21.662C7.76946 21.5547 7.40887 21.3458 7.11906 21.0559C6.82926 20.7661 6.62032 20.4056 6.51301 20.01C6.24628 18.5217 6.11707 17.012 6.12701 15.5C6.11765 13.9884 6.24686 12.4791 6.51301 10.991C6.62262 10.595 6.83209 10.2337 7.12135 9.9418C7.4106 9.64991 7.76997 9.43719 8.16501 9.324C10.5992 9.0378 13.0493 8.90887 15.5 8.938C17.9512 8.90729 20.4017 9.04092 22.835 9.338C23.2306 9.44531 23.5911 9.65425 23.881 9.94406C24.1708 10.2339 24.3797 10.5944 24.487 10.99C24.7614 12.482 24.8907 13.9971 24.873 15.514V15.515Z"
      fill="white" />
  </g>
  <defs>
    <clipPath id="clip0_1_67">
      <rect width="30" height="30" fill="white" transform="translate(0.5 0.5)" />
    </clipPath>
  </defs>
</svg>